<?xml version="1.0" encoding="utf-8"?>
<!-- Generator: Adobe Illustrator 15.0.0, SVG Export Plug-In . SVG Version: 6.00 Build 0)  -->
<!DOCTYPE svg PUBLIC "-//W3C//DTD SVG 1.1//EN" "http://www.w3.org/Graphics/SVG/1.1/DTD/svg11.dtd">
<svg version="1.1" id="Layer_1" xmlns="http://www.w3.org/2000/svg" xmlns:xlink="http://www.w3.org/1999/xlink" x="0px" y="0px"
	 width="500px" height="500px" viewBox="0 0 500 500" enable-background="new 0 0 500 500" xml:space="preserve">
<g>
	<path fill-rule="evenodd" clip-rule="evenodd" fill="#900000" stroke="#900000" stroke-width="0.5" d="M100.201,23.758
		c0.594,0.138,0.659-0.293,0.698-0.753c2.542,1.023,5.588,1.503,8.38,2.258c3.274,1.239,9.834,0.938,13.616,0.376
		c1.291-0.24,3.478,0.487,4.19-0.376c1.326-0.577,3.144-0.625,4.888-0.752c1.827-0.614,5.854-0.614,7.681,0
		c1.29,0.24,3.478-0.488,4.189,0.376c0.827,0.866,3.134,0.135,4.539,0.376c1.049,0.625,2.996,0.284,4.19,0.753
		c3.547,1.946,7.688,3.254,11.871,4.517c0.858,0.705,2.392,0.683,3.491,1.128c7.923,2.75,12.474,11.143,19.202,13.926
		c1.331-0.447,3.604,0.121,4.189-1.129c0.814,0,1.63,0,2.444,0c0.529-0.936,3.008,0.231,3.492-0.752c1.746,0,3.491,0,5.237,0
		c7.275,5.456,15.585,9.796,24.439,13.549c0,0.125,0,0.251,0,0.377c1.095,0.952,3.265,0.746,4.539,1.505
		c4.811,1.714,9.155,3.931,13.966,5.646c1.087,0.459,1.952,1.157,3.491,1.128c3.561,2.184,8.835,2.521,12.568,4.517
		c1.014,1.04,3.324,0.682,4.539,1.505c0.116,0,0.232,0,0.35,0c0.612,0.97,2.3,0.782,3.491,1.129c0.146,0.845,1.853,0.01,2.095,0.753
		c1.092,0.579,2.58,0.73,4.189,0.752c0,0.125,0,0.251,0,0.376c1.56,0.451,3.854,0.111,5.237,0.752
		c1.275,0.758,3.691,0.286,4.888,1.129c2.185,0.279,4.413,0.512,6.982,0.376c0,0.125,0,0.251,0,0.376
		c2.015,0.964,5.028,0.852,7.681,1.129c0.447,0.522,1.648,0.23,2.095,0.753c2.185,0.908,5.428,0.673,7.682,1.505
		c1.608,0.021,3.097,0.174,4.189,0.752c1.376,1.026,4.329,0.352,5.936,1.129c2.069,1.156,5.251,1.114,8.03,1.505
		c0.297-0.069,0.329,0.146,0.349,0.376c1.645,0.862,3.839,1.13,6.284,1.129c0.412,0.433,1.234,0.426,2.095,0.376
		c0.322,1.409,2.804,0.491,4.19,0.753c1.325,0.829,3.842,0.374,5.236,1.129c0.466,0,0.931,0,1.396,0c0,0.125,0,0.25,0,0.376
		c1.991,0.739,4.488,0.933,6.982,1.129c-0.059,0.816,1.239,0.171,1.746,0.376c1.248,1.79,4.961,0.924,6.982,1.882
		c0.466,0,0.932,0,1.396,0c0,0.125,0,0.25,0,0.376c1.719,0.908,4.347,0.834,6.285,1.506c0,0.125,0,0.251,0,0.376
		c1.486-0.222,2.309,0.27,3.491,0.376c0.767,0.93,2.855,0.434,3.84,1.129c1.63,1.129,4.992,0.389,6.634,1.505
		c0.508,0.206,1.805-0.44,1.746,0.376c0.958,0.598,2.272,0.812,3.142,1.505c4.445,1.356,7.791,3.896,12.22,5.269
		c0,0.126,0,0.251,0,0.377c1.096,0.952,3.265,0.746,4.539,1.505c19.349,9.878,40.092,18.254,57.258,30.485c0,0.126,0,0.251,0,0.376
		c1.909,1.204,2.729,3.582,4.539,4.893c8.352,14.708,20.26,25.582,23.741,45.54c0.707,0.994,0.368,3.115,1.047,4.14
		c0.523,0.816,0.596,2.118,0.698,3.387c0.873,1.944,0.313,5.435,1.048,7.527c0.552,0.659,0.467,2.005,0.698,3.011
		c0.621,3.219,0.503,7.236,1.396,10.162c0.559,1.405,0.335,3.654,0.698,5.27c-0.011,4.143,1.719,8.675,1.396,14.302
		c-2.564,1.568-6.264-0.293-9.077,1.128c-1.192,0.347-1.082,2.097-1.396,3.388c-1.086,1.43-4.288,14.992-5.936,7.527
		c-0.62-0.712-0.255-2.485-0.35-3.764c-0.294-0.938-0.457-2.016-0.349-3.387c-0.619-0.712-0.255-2.486-0.35-3.765
		c-2.057-0.459-1.389,2.016-2.444,2.635c-1.859,1.759-1.745,5.646-4.887,6.022c-0.186-3.335,0.882-5.321,0.697-8.657
		c0-0.25,0-0.501,0-0.752c-3.09,1.812-3.334,6.692-6.982,7.903c-1.171-1.371,0.705-6.029-1.047-6.774
		c0.099,0.607-0.33,0.648-0.35,1.129c-2.845,3.583-4.114,8.863-9.427,9.786c0.22-1.145-0.446-3.242,0.35-3.764
		c0.581-2.64,0.581-7.899,0-10.539c-6.577,9.597-11.108,21.396-18.155,30.486c-0.116,0-0.232,0-0.349,0
		c-2.602-3.344,0.061-12.359-1.397-16.936c-0.792-0.4-0.133-2.366-0.349-3.388c-1.007-2.301,0.318-7.117-0.698-9.408
		c-0.405-0.062-0.621,0.082-0.698,0.375c0.288,1.064-0.492,0.977-0.35,1.882c-1.305,0.35-0.793,2.658-1.396,3.765
		c-3.659,5.591-5.276,13.382-10.475,17.312c-0.931-0.754,0.401-3.945-1.047-4.139c0.017-1.902-0.137-3.618-0.699-4.893
		c-0.084-2.418,0.364-5.411-1.047-6.398c-0.237-1.375-0.487-2.737-0.349-4.517c-0.864-1.703-0.455-4.78-1.746-6.022
		c-0.029-0.595,0.168-1.435-0.349-1.505c-3.321,10.094-8.104,18.613-11.871,28.226c-1.012,0.541-1.439,1.711-1.745,3.012
		c-1.023,1.031-1.655,2.482-2.096,4.141c-1.278,0.002-0.512,2.207-2.095,1.883c-0.227-1.764,0.456-4.508-0.349-5.646
		c0-1.756,0-3.512,0-5.27c-0.763-1.494-0.025-7.999-1.746-6.021c-4.659,9.152-8.138,19.58-15.013,26.346
		c0.346,1.5-1.044,1.133-0.698,2.635c-2.726,1.578-3.252,5.527-7.332,5.645c-0.576-3.428-0.576-9.367,0-12.795
		c0.581-3.391,0.581-9.406,0-12.797c-1.069-1.178,0.306-2.914,0-4.518c-0.725-1.35-0.181-4.07-0.349-6.021
		c-0.981-0.055-1.008,0.921-1.048,1.882c-2.306,1.691-6.822,15.133-9.775,13.549c-0.773-1.174,0.027-4.045-0.698-5.27
		c0.116,0,0.232,0,0.349,0c-0.89-1.676,0.021-5.291-1.396-6.398c-0.224-1.514,0.454-4.001-0.349-4.892
		c0.029-0.534,0.058-1.066-0.35-1.13c-0.201-1.663-0.145-3.606-0.697-4.892c-0.327-0.276-0.529-0.685-0.699-1.13
		c-1.721,0.904-2.025,3.336-3.491,4.517c-0.116,0-0.232,0-0.349,0c-0.699,3.136-3.31,4.211-4.539,6.775
		c0.064,0.32-0.137,0.354-0.35,0.375c-0.665,1.793-2.236,2.607-3.142,4.141c-2.197,2.9-3.666,6.586-7.681,7.527
		c0-0.125,0-0.252,0-0.377c0.579-0.895,0.579-4.373,0-5.27c0-0.123,0-0.25,0-0.375c1.592-0.541-0.004-4.52,1.047-5.646
		c0-0.25,0-0.5,0-0.752c-0.408-1.318,0.17-5.82,0-9.033c-0.088-1.646,0.64-4.991-1.047-3.763
		c-4.572,6.738-8.67,13.989-15.014,18.817c-0.232,0-0.465,0-0.698,0c0.251-1.863,0.479-3.748,0.35-6.021
		c0.787-0.279,0.137-2.111,0.349-3.01c0.804-0.892,0.125-3.379,0.35-4.894c1.188-1.847,1.11-8.678,0-10.538
		c-0.229,1.008-1,1.432-1.396,2.259c-0.066,0.304-0.351,0.375-0.35,0.752c-3.172,2.477-5.409,5.961-8.729,8.28
		c-0.135,0.643-1.645,1.692-2.095,0.753c-0.252-1.366-0.501-5.979-0.349-9.033c-0.726-1.351-0.182-4.07-0.35-6.021
		c-0.873-0.063-1.093,0.578-1.396,1.129c-3.188,2.584-4.815,6.853-8.379,9.033c-0.405,0.315-0.937,0.496-1.746,0.376
		c-0.23-3.891,0.464-8.78-0.349-12.044c-1.793-1.148-3.079,1.084-3.491,2.635c-1.828,1.919-3.085,4.453-5.586,5.646
		c-0.861,0.05-1.683,0.057-2.096-0.377c0-0.125,0-0.25,0-0.376c0.581-2.639,0.581-7.898,0-10.538
		c-0.135-1.108-1.645-0.735-2.094-1.505c-0.89-0.798-2.856-0.433-3.841-1.129c-2.284-0.172-3.34-1.668-5.586-1.881
		c-1.475-0.921-3.575-1.165-5.587-1.506c-0.116,0-0.232,0-0.349,0c0-0.125,0-0.251,0-0.376c-1.779-0.842-4.006-1.202-6.634-1.129
		c-0.219-0.894-2.149,0.059-2.444-0.752c-0.483-0.984-2.962,0.183-3.491-0.753c-4.875-0.165-10.279-1.481-14.664,0
		c-2.253-0.045-4.354,0.074-5.935,0.753c-1.688,0.816-4.583,0.33-6.285,1.129c-1.564-0.056-2.988,0.041-3.84,0.752
		c-0.243,0.743-1.948-0.092-2.095,0.752c-2.037-0.063-3.347,0.657-5.586,0.376c-1.085,0.601-4.152,0.601-5.237,0
		c-1.594-0.163-3.845,0.381-4.888-0.376c-1.524,0.264-1.967-0.64-3.491-0.376c-0.283-0.071-0.348-0.377-0.698-0.376
		c-2.004-0.605-5.797-1.271-8.03-0.376c-2.458-0.392-3.506,0.737-4.888,1.505c-2.049,0.551-3.105,2.173-4.888,3.011
		c-0.117,0-0.233,0-0.35,0c-0.874,1.818-3.02,2.264-3.84,4.14c-2.164,1.055-2.979,3.563-5.237,4.517
		c-0.528,0.936-3.007-0.23-3.491,0.753c-2.58,0.104-5.677-0.35-6.982,1.129c-0.948,0.233-2.771-0.478-3.142,0.377
		c-1.219,0.19-2.636,0.169-3.491,0.752c-5.581,1.022-10.829,4.368-10.823,10.162c0.179,1.312,2.281,0.552,3.491,0.753
		c1.056,0.868,3.601,0.133,5.237,0.376c0,0.125,0,0.251,0,0.376c4.445,1.105,11.266-0.352,15.711,0.753
		c3.137,0.007,6.472-0.202,8.729,0.753c5.942,2.252,11.292,5.141,15.711,9.034c1.25,1.662,2.646,3.166,4.189,4.516
		c1.753,0.242,1.738,2.393,3.491,2.635c1.397,2.008,3.203,3.572,5.237,4.893c8.339,7.068,14.908,16.045,27.232,18.816
		c0,0.127,0,0.252,0,0.377c1.246,0.541,2.891,0.648,4.189,1.129c8.01,2.727,9.039,13.697,12.918,21.453
		c3.872,7.744,9.74,12.971,13.965,19.949c2.086-0.764,3.377-2.383,5.586-3.012c2.741,1.311,2.497,5.84,3.841,8.656
		c-0.021,1.652,0.141,3.111,0.698,4.139c1.059,3.125,1.762,6.633,2.793,9.787c0.166,1.217,0.453,4.258,1.396,3.387
		c2.739-3.068,4.633-7.049,7.332-10.162c0.34-0.01,0.271-0.461,0.35-0.752c1.133,0.219,1.624-0.258,2.443-0.377
		c0.147,0.787-0.239,0.998-0.349,1.506c-0.129,1.492,0.319,3.607-0.35,4.516c0.253,1.15-0.356,1.373-0.349,2.26
		c-0.114,1.383,0.298,3.332-0.35,4.139c-0.416,2.326-1.98,6.955-0.349,9.033c2.373,3.59,4.329-2.936,6.284-5.646
		c1.965-2.723,4.555-4.078,4.888-6.021c0.626,0.047,0.736-0.459,1.396-0.377c0.352,1.252-0.772,4.096,0.698,4.143
		c0,0.125,0,0.25,0,0.375c-1.13,3.047-0.232,8.279-1.396,11.291c0,1.131,0,2.258,0,3.387c1.129-0.289,1.827-1.041,2.095-2.256
		c3.599-2.896,5.377-7.756,9.077-10.541c0.117,0,0.233,0,0.35,0c0.349,0,0.698,0,1.048,0c0.768,2.184,0.15,5.859,0.349,8.658
		c-0.805,1.014-0.124,3.629-0.349,5.268c-0.117,0-0.233,0-0.35,0c-0.803,0.891-0.125,3.379-0.35,4.893
		c-0.615,1.971-0.938,4.258-1.047,6.775c0.543,0.545,1.36,0.791,2.095,1.129c4.938,1.703,9.054,4.291,12.918,7.152
		c0.044,0.83,1.481,0.158,2.095,0.375c-0.299-1.201,0.55-1.164,0.698-1.881c0.062-1.816,1.685-1.947,1.746-3.766
		c1.272-0.383,1.228-2.188,1.745-3.387c1.922-2.994,1.985-6.051,3.841-8.656c2.99,0.541,2.825,4.482,4.189,6.775
		c0.326,2.533,0.438,5.301,0.35,8.279c-0.117,0-0.233,0-0.35,0c-0.113,1.383,0.298,3.332-0.349,4.141c0,1.254,0,2.508,0,3.764
		c-1.208,0.648-1.436,8.494,1.047,6.398c0.283-0.072,0.348-0.379,0.698-0.377c2.323-0.256,4.638-0.52,6.284-1.506
		c3.196-0.945,4.963-3.432,8.729-3.764c0.311,0.965,0.091,2.596-0.349,3.764c-1.014,3.801-2.616,6.967-3.492,10.916
		c13.477-3.162,18.411-15.533,25.139-25.971c0.594-0.139,0.658,0.295,0.698,0.754c1.107,1.189,0.009,4.758,1.396,5.645
		c-0.175,2.07,0.385,4.932-0.35,6.398c-0.58,1.391-0.58,5.383,0,6.775c0,0.125,0,0.25,0,0.377c-1.644,2.115-0.83,6.881-1.047,10.537
		c-0.595,1.115-0.385,3.098-0.698,4.516c7.029-1.33,9.364-7.719,14.663-10.914c0.066,0.305,0.351,0.375,0.349,0.754
		c0.953,4.869-0.595,12.434,1.397,16.182c0.103-0.766,0.944-0.736,1.047-1.504c0.979-0.578,1.536-1.607,2.444-2.26
		c0.116,0,0.232,0,0.35,0c0.961-1.973,2.416-3.416,3.491-5.268c2.313-2.523,2.748-7.074,6.284-8.281
		c-0.018,2.152,1.519,2.629,1.047,5.27c0.742,1.584,0.17,4.586,0.35,6.773c0.754,1.822,0.16,5.098,0.349,7.529
		c0.895-0.041,1.665-0.213,2.096-0.754c2.642-2.42,4.507-5.678,8.378-6.775c0.386,2.221,0.284,4.965,1.048,6.775
		c0.347,1.008,0.72,1.986,0.699,3.389c4.35-1.457,6.564-5.219,9.775-7.904c0.507,0.205,1.804-0.439,1.745,0.377
		c-0.457,1.764-0.358,4.129-0.35,6.398c-0.741,0.578-0.147,2.6-1.047,3.01c-0.678,1.025-0.218,3.277-1.048,4.141
		c-1.65,3.99-3.322,7.959-5.586,11.291c-1.426,1.223-2.706,2.604-3.84,4.141c-3.266,4.383-6.975,8.289-11.173,11.666
		c-1.05,0.875-2.172,1.674-3.143,2.635c-4.251,2.693-8.56,5.324-14.314,6.398c-3.272,1.363-8.925,0.164-12.568,1.129
		c-1.175,0.625-4.761,0.625-5.936,0c-2.679-0.875-6.864-0.127-10.124-0.377c-0.896-1.041-3.967,0.262-4.889-0.752
		c-0.507-0.207-1.805,0.439-1.745-0.377c-1.207-0.707-3.205-0.561-4.539-1.129c-11.265-7.303-23.264-13.813-34.215-21.453
		c-4.023-1.309-7.643-3.053-10.474-5.645c-1.295,0.266-1.499-0.643-2.793-0.377c-0.682-1.648-3.497-0.998-4.889-1.881
		c-0.232,0-0.466,0-0.698,0c0-0.125,0-0.252,0-0.377c-1.692-0.811-4.095-0.855-6.284-1.129c0.25-1.023-1.646,0.268-1.396-0.754
		c-1.475-0.793-3.909-0.553-5.237-1.506c-0.729,0.16-0.925-0.258-1.396-0.375c-1.225-0.938-3.556-0.684-4.888-1.506
		c-1.851-0.639-3.942-1.02-5.936-1.506c-0.996-1.184-3.143-1.129-4.888-1.506c0.25-1.021-1.646,0.27-1.396-0.752
		c-1.715-0.785-4.127-0.82-5.936-1.506c-2.309,0.357-2.832-1.213-4.888-1.129c-0.685-1.018-3.472,0.23-4.189-0.752
		c-1.384-0.139-3.346,0.344-4.189-0.377c-2.357-0.596-5.299-0.561-8.03-0.752c-0.826-0.865-3.134-0.135-4.539-0.377
		c-0.583-1.004-3.22,0.209-3.841-0.754c-2.052-0.672-4.482-0.938-6.982-1.129c-0.108-0.51-0.875-0.311-1.397-0.377
		c0-0.123,0-0.25,0-0.375c-0.661-0.668-2.306-0.273-3.491-0.377c-1.067-0.605-2.836-0.455-3.84-1.127
		c-1.241-0.922-3.832-0.387-5.237-1.131c-2.44-0.129-4.342-0.84-6.285-1.506c-1.938-0.043-3.336-0.668-4.888-1.129
		c-1.178-0.611-2.739-0.811-4.19-1.129c-2.642-0.539-4.485-1.938-7.332-2.258c0-0.125,0-0.25,0-0.375
		c-1.298-0.734-3.117-0.906-4.888-1.131c0.064-0.32-0.136-0.354-0.349-0.377c-0.641-0.813-2.058-0.791-3.491-0.752
		c-0.372-0.854-2.195-0.143-3.142-0.377c-1.519-0.871-4.534-0.129-6.633-0.375c-0.297,0.068-0.33-0.146-0.35-0.377
		c-3.16-1.109-8.705,0.352-11.871-0.754c-2.543,0.232-4.046-0.654-6.633-0.375c0.157-1.049-1.903,0.295-1.746-0.752
		c-0.891-0.922-2.817-0.729-3.84-1.506c-5.291-3.205-10.92-6.043-16.41-9.033c-1.407-1.996-2.929-3.867-4.888-5.27
		c-5.488-8.762-11.284-17.191-15.362-27.475c-0.197-1.166,0.095-2.861-1.047-3.01c0.526-8.346-4.139-11.096-9.078-13.551
		c0.098-0.607-0.33-0.646-0.349-1.129c-0.752-1.322-0.27-3.975-1.397-4.893c-0.271-0.334-0.375-0.85-0.349-1.506
		c-0.763-1.059-0.354-3.381-1.746-3.764c-6.363-11.08-13.25-21.596-19.552-32.742c0-0.125,0-0.252,0-0.377
		c-1.439-0.455-0.95-2.992-2.443-3.387c-1.503-3.525-3.922-6.061-5.237-9.787c-0.938-0.494-0.095-2.908-1.397-3.01
		c-0.603-0.229,0.027-1.785-0.698-1.883c-0.105-1.643-0.363-3.121-1.048-4.139c-3.793-12.473-15.64-16.262-27.232-20.324
		c0-0.125,0-0.25,0-0.377c-2.188-1.027-5.479-0.867-8.03-1.506c-0.233,0-0.465,0-0.698,0c0.119-0.756-0.071-1.176-0.698-1.129
		c0.533-0.686,0.533-3.076,0-3.764c3.276-8.26,11.401-11.294,17.806-16.183c-0.778-2.674-2.336-4.507-4.19-6.021
		c-0.232-1.506-2.245-1.092-3.84-1.13c-3.516-1.08-9.018-0.962-12.568,0c-1.962,0.019-4.15-0.208-5.237,0.754
		c-3.917,0.669-6.605,2.664-10.823,3.011c-0.75,0.697-2.557,0.254-3.84,0.376c-0.117-0.878-0.358-1.621-1.047-1.881
		c-1.431-6.172,5.018-9.725,6.633-15.055c0.883-1.307,1.659-2.729,2.444-4.141c4.612-5.816,7.077-13.949,11.871-19.571
		c-0.175-1.569,1.02-1.66,0.698-3.387c0.117,0,0.233,0,0.349,0c1.179-2.367,2.637-4.434,3.492-7.151c0-0.125,0-0.251,0-0.376
		c1.272-0.385,1.106-2.321,1.746-3.388c0-0.125,0-0.251,0-0.376c0.116,0,0.233,0,0.349,0c0.648-1.183,0.645-3.069,1.396-4.14
		c0.136-0.983,0.18-2.065,0.698-2.634c0.116,0,0.233,0,0.35,0c0.276-3.936,1.035-9.968-0.699-12.797
		c-0.342-1.135-0.713-2.242-1.047-3.387c-2.536-2.786-4.792-5.873-6.634-9.409c-7.241-6.371-16.054-11.046-21.646-19.195
		c-0.844-0.972-0.592-3.126-1.746-3.764c0.248-1.396-0.597-1.615-0.349-3.011c-0.524-1.191-0.492-2.983-1.047-4.14
		c-0.034-1.086-0.481-2.011-0.698-3.764c-0.746-1.078,0.058-3.826-1.047-4.517c-1.084-1.215-1.165-3.512-2.444-4.516
		c0-0.125,0-0.25,0-0.376c-1.209-1.205-2.05-2.808-3.491-3.763c0.063-1.699-1.567-1.573-1.746-3.011
		c5.47-11.792,12.936-21.434,19.551-31.991c0.117,0,0.233,0,0.349,0c0.919-2.146,2.955-3.087,3.841-5.269
		c2.751-4.057,4.493-7.133,10.125-8.657c5.478-1.482,8.849-4.647,13.966-7.15c1.482-0.785,4.601,0.193,5.237-1.506
		c0.349,0,0.698,0,1.047,0c1.303-0.603,3.389-0.361,4.888-0.752c0.718-0.982,3.505,0.265,4.19-0.753c0-0.125,0-0.25,0-0.376
		c2.484,0.043,4.813-0.081,6.633-0.752c1.564,0.055,2.988-0.041,3.84-0.752c10.952-2.246,17.296-9.458,23.393-16.937
		c0.116,0,0.232,0,0.349,0C97.734,25.866,99.575,25.466,100.201,23.758z M111.723,67.417c-0.698,0-1.396,0-2.095,0
		c-11.04,5.412-22.165,10.732-31.771,17.689c-1.736,1.015-3.468,2.033-4.539,3.764c-3.934,3.19,0.036,9.257,1.746,12.043
		c0.349,0,0.698,0,1.047,0c0.18,1.312,2.281,0.552,3.491,0.753c1.357,0.67,3.633,0.35,4.888,1.129
		c3.314,0.316,6.022,1.287,9.078,1.882c1.745,1.13,4.779,0.871,7.332,1.129c0.558,0.778,2.131,0.463,2.793,1.129
		c1.443,0.576,3.315,0.691,5.237,0.752c2.617,1.444,1.614,6.791,3.142,9.409c-0.124,3.63,0.427,7.988-0.698,10.539
		c-6.956,18.346-21.155,28.882-29.676,45.541c-0.826,0.866-0.604,2.862-1.396,3.764c0.171,1.188-0.629,1.329-0.349,2.635
		c1.134,1.538,2.414,2.917,3.84,4.14c1.772,2.982,3.787,5.704,8.379,5.646c0.826,0.865,3.134,0.135,4.539,0.376
		c0,0.125,0,0.25,0,0.376c3.021,0.633,6.014,1.295,9.776,1.129c1.171,0.87,3.834,0.132,5.586,0.376
		c2.073-0.902,6.083,0.284,7.332-1.506c2.394-1.058,3.71-3.276,4.539-6.021c0.654-1.051,0.661-2.8,1.396-3.764
		c1.013-2.67,1.094-6.346,2.443-8.656c0.729-1.848,0.169-5.087,1.048-6.774c0-1.003,0-2.007,0-3.011
		c-0.911-0.774,0.246-3.778-0.699-4.516c0.013-1.645,0.129-3.401-0.698-4.141c-0.688-0.261,0.086-2.1-0.698-2.258
		c0.056-2.82-0.255-5.246-1.396-6.775c0.258-1.783-0.393-2.587-0.349-4.14c-1.271-4.075-0.586-10.359,0-14.678
		c0-0.125,0-0.251,0-0.376c0.128-1.492-0.32-3.606,0.349-4.517c0-3.011,0-6.022,0-9.033c0.116,0,0.232,0,0.349,0
		c0.505-0.938,0.82-4.886-0.349-5.269c0.38-5.665,0.286-10.761-0.699-16.56c-0.361-1.869-0.079-4.431-0.698-6.022
		c-1.325-5.346-2.923-10.398-5.936-13.925C117.263,67.712,114.332,66.117,111.723,67.417z M185.041,71.933
		c-2.728-0.427-8.66-1.059-10.823,0.376c-2.087,0.887-0.783,5.428-2.095,7.151c-1.408,0.991-0.606,4.364-1.396,6.021
		c-0.879,1.688-0.607,4.615-1.396,6.398c-0.896,7.44-4.778,11.661-5.586,19.194c-2.164,4.568,0.941,14.815-1.746,18.818
		c-1.837,2.787-5.269,3.855-6.983,6.774c-1.737,0.349-2.239,6.466-0.349,7.151c3.888,2.333,7.994,4.429,12.918,5.646
		c5.082,3.68,8.448,9.208,12.569,13.926c1.134,1.537,2.415,2.917,3.84,4.14c1.377,1.401,2.095,3.512,4.189,4.14
		c1.127,1.294,2.331,2.506,3.84,3.388c0.35-0.001,0.416,0.305,0.698,0.376c0.721,1.312,4.32,1.712,4.888,0
		c2.269-1.443,4.118-3.34,5.935-5.27c0.07-2.458-0.683-4.031-1.745-5.269c-2.974-0.189-5.149,2.473-7.681,1.506
		c-1.641-0.616-2.59-1.976-3.84-3.011c0.078-0.712-0.394-0.831-0.35-1.506c-0.815-1.067,0.287-2.477,0.35-3.764
		c1.721-4.668,4.826-7.844,5.935-13.173c1.154-0.638,0.902-2.792,1.746-3.763c2.353-5.996,4.266-12.463,6.284-18.819
		c0.834-2.236,1.181-5,1.048-8.28c1.266-0.266,0.481-2.743,0.698-4.14c0.581-2.64,0.581-7.899,0-10.538
		c-0.217-1.397,0.567-3.874-0.698-4.141c0.048-1.933-0.051-3.708-0.699-4.892c0.052-1.687-0.038-3.222-0.698-4.141
		c-1.766-3.24-2.58-7.505-4.539-10.538c-0.411-0.058-0.991,0.065-1.048-0.376c-0.717-0.983-2.73-0.569-3.84-1.129
		c-0.349,0-0.699,0-1.048,0c-1.056-1.872-4.958-0.677-6.633-1.882C186.279,72.104,184.982,72.749,185.041,71.933z M242.997,89.999
		c-4.28,2.439-4.073,8.119-6.284,12.796c-1.863,3.941-5.031,7.456-6.633,11.291c-1.433,3.429-2.032,7.708-2.793,11.667
		c-1.428,0.217-0.61,2.855-1.396,3.763c0.042,1.802,0.023,3.538-0.698,4.517c-1.446,3.083-0.921,8.291-1.047,12.796
		c0.116,0,0.233,0,0.349,0c0.224,1.515-0.454,4.002,0.349,4.893c0.033,0.591-0.047,1.306,0.698,1.129
		c0.214,2.781,2.351,3.488,3.492,5.269c9.273,7.817,15.599,18.813,30.025,21.076c2.457,0.989,6.042,0.763,8.728,1.505
		c1.514,0,3.026,0,4.539,0c0.181,1.312,2.281,0.552,3.491,0.753c1.609,1.025,5.374-0.273,6.983,0.752
		c3.145-0.249,7.213,0.499,9.775-0.377c1.638-0.116,3.512,0.023,4.189-1.129c2.248,0.292,3.417-0.583,4.189-1.882
		c1.948-0.786,3.383-2.124,4.539-3.763c2.382-0.82,3.476-3.028,5.237-4.516c5.961-6.372,11.055-13.676,13.267-24.088
		c0.581-1.89,0.581-6.39,0-8.28c-0.822-2.125-1.234-4.691-2.443-6.398c-0.653-0.801-0.57-2.397-1.396-3.011
		c-0.941-0.742-1.548-1.845-2.095-3.011c-1.432-2.723-3.626-4.624-5.936-6.398c-2.383-2.576-5.482-4.377-9.078-5.646
		c-2.304-0.903-3.958-2.507-6.633-3.011c-4.999-2.891-10.435-5.312-16.061-7.527c-0.496-1.097-2.067-1.033-3.142-1.506
		c-4.025-2.31-8.628-3.997-12.919-6.021c-1.429-0.718-3.616-0.618-4.888-1.505c-4.255-1.435-8.54-2.837-12.918-4.14
		C246.112,89.375,243.374,89.375,242.997,89.999z M426.292,127.635c-2.176-0.658-5.36-0.519-7.331-0.376
		c-0.166,1.182,0.436,1.538,1.047,1.882c0.443,1.278,1.753,1.623,2.096,3.011c1.133,1.537,2.413,2.917,3.84,4.139
		c6.071,8.887,16.81,12.742,25.138,19.195c1.801,1.447,3.118,3.413,5.236,4.517c1.489,1.908,4.065,2.644,5.587,4.516
		c1.144,1.151,2.262,2.33,3.841,3.011c2.99,2.923,7.098,4.644,10.823,6.774c0.352,0.624,1.482,0.41,2.095,0.753
		c0.469-1.23,0.142-3.251-0.35-4.516c-3.161-9.64-10.635-14.631-16.759-21.077c-2.525-2.797-5.394-5.225-8.029-7.904
		c-5.19-5.195-12.23-8.394-19.203-11.667c-1.146-0.646-2.567-0.996-4.189-1.129c-0.077-0.293-0.292-0.438-0.697-0.376
		C428.835,127.654,427.627,127.577,426.292,127.635z M352.975,138.926c-0.495-0.63-3.468-0.749-3.491,0.376
		c-3.711,0.14-6.035,1.774-7.681,4.14c-0.723,1.606-1.071,3.613-1.048,6.022c-0.811,2.137-0.12,5.893-0.35,8.656
		c0.583,3.512,0.949,7.257,2.095,10.162c6.729-1.278,11.232-4.955,16.409-7.904c0.419-1.682,2.41-1.668,2.444-3.764
		c0.392-0.08,0.543-0.417,0.699-0.753c1.049-1.526,1.205-6.876-0.35-7.904C360.224,143.406,357.228,140.488,352.975,138.926z"/>
</g>
</svg>
